<svg width="29" height="17" viewBox="0 0 29 17" fill="none" xmlns="http://www.w3.org/2000/svg">
  <path
    d="M8.15686 6.10077C8.15686 6.44645 8.19558 6.72673 8.26335 6.93226C8.3408 7.1378 8.43762 7.36203 8.57315 7.60494C8.62156 7.67968 8.64092 7.75442 8.64092 7.81982C8.64092 7.91325 8.58284 8.00667 8.45698 8.1001L7.84705 8.49249C7.75992 8.54855 7.67279 8.57658 7.59534 8.57658C7.49852 8.57658 7.40171 8.52986 7.3049 8.44578C7.16936 8.30564 7.05318 8.15615 6.95637 8.00667C6.85955 7.84785 6.76274 7.67034 6.65624 7.45545C5.9011 8.31498 4.95232 8.74474 3.80992 8.74474C2.99669 8.74474 2.34803 8.52052 1.87365 8.07207C1.39926 7.62362 1.15723 7.02569 1.15723 6.27828C1.15723 5.48415 1.44767 4.83951 2.03823 4.35369C2.62879 3.86787 3.41299 3.62496 4.41017 3.62496C4.73933 3.62496 5.07818 3.65299 5.43639 3.6997C5.7946 3.74641 6.16249 3.82115 6.54975 3.90524V3.22322C6.54975 2.51318 6.39485 2.01802 6.09472 1.72839C5.78492 1.43877 5.26213 1.29863 4.51666 1.29863C4.17781 1.29863 3.82928 1.336 3.47107 1.42009C3.11286 1.50417 2.76433 1.60694 2.42549 1.73774C2.27058 1.80314 2.15441 1.84051 2.08664 1.85919C2.01887 1.87788 1.97046 1.88722 1.93174 1.88722C1.7962 1.88722 1.72843 1.79379 1.72843 1.5976V1.13981C1.72843 0.990323 1.74779 0.878211 1.7962 0.812813C1.8446 0.747414 1.93174 0.682015 2.06728 0.616616C2.40612 0.448448 2.81274 0.308308 3.28713 0.196196C3.76151 0.0747414 4.26495 0.0186853 4.79742 0.0186853C5.9495 0.0186853 6.79178 0.270937 7.33394 0.775442C7.86642 1.27995 8.13749 2.04605 8.13749 3.07374V6.10077H8.15686ZM4.22622 7.52085C4.54571 7.52085 4.87487 7.4648 5.2234 7.35268C5.57193 7.24057 5.88173 7.03503 6.14313 6.75475C6.29803 6.57724 6.41421 6.38105 6.4723 6.15682C6.53039 5.9326 6.56911 5.66166 6.56911 5.34401V4.95162C6.28835 4.88622 5.98823 4.83016 5.67843 4.79279C5.36862 4.75542 5.0685 4.73674 4.76838 4.73674C4.11973 4.73674 3.64534 4.85819 3.32585 5.11044C3.00637 5.3627 2.85147 5.71772 2.85147 6.18485C2.85147 6.62396 2.96764 6.95095 3.20968 7.17517C3.44203 7.40874 3.78088 7.52085 4.22622 7.52085V7.52085ZM12.0004 8.52986C11.8261 8.52986 11.7099 8.50183 11.6325 8.43644C11.555 8.38038 11.4872 8.24958 11.4292 8.07207L9.15404 0.850183C9.09595 0.66333 9.06691 0.541875 9.06691 0.476476C9.06691 0.326994 9.14436 0.24291 9.29926 0.24291H10.248C10.432 0.24291 10.5578 0.270938 10.6256 0.336336C10.7031 0.392392 10.7611 0.52319 10.8192 0.700701L12.4457 6.88555L13.956 0.700701C14.0044 0.513847 14.0625 0.392392 14.1399 0.336336C14.2174 0.28028 14.3529 0.24291 14.5272 0.24291H15.3017C15.4857 0.24291 15.6115 0.270938 15.689 0.336336C15.7664 0.392392 15.8342 0.52319 15.8729 0.700701L17.4026 6.96029L19.0774 0.700701C19.1355 0.513847 19.2033 0.392392 19.2711 0.336336C19.3485 0.28028 19.4744 0.24291 19.6486 0.24291H20.549C20.7039 0.24291 20.791 0.317651 20.791 0.476476C20.791 0.52319 20.7814 0.569903 20.7717 0.625959C20.762 0.682015 20.7426 0.756757 20.7039 0.859526L18.3707 8.08141C18.3126 8.26827 18.2448 8.38972 18.1674 8.44578C18.0899 8.50183 17.9641 8.5392 17.7995 8.5392H16.9669C16.783 8.5392 16.6571 8.51118 16.5796 8.44578C16.5022 8.38038 16.4344 8.25892 16.3957 8.07207L14.8951 2.04605L13.4042 8.06273C13.3558 8.24958 13.2977 8.37104 13.2202 8.43644C13.1428 8.50183 13.0072 8.52986 12.833 8.52986H12.0004ZM24.4409 8.78211C23.9375 8.78211 23.4341 8.72606 22.95 8.61395C22.4659 8.50183 22.0883 8.38038 21.8366 8.24024C21.6817 8.15615 21.5752 8.06273 21.5365 7.97864C21.4978 7.89456 21.4784 7.80113 21.4784 7.71705V7.24057C21.4784 7.04438 21.5559 6.95095 21.7011 6.95095C21.7592 6.95095 21.8173 6.96029 21.8754 6.97898C21.9334 6.99766 22.0206 7.03503 22.1174 7.0724C22.4466 7.21254 22.8048 7.32466 23.1823 7.3994C23.5696 7.47414 23.9472 7.51151 24.3344 7.51151C24.9443 7.51151 25.4187 7.40874 25.7479 7.2032C26.0771 6.99766 26.2513 6.6987 26.2513 6.31565C26.2513 6.05405 26.1642 5.83917 25.9899 5.66166C25.8157 5.48415 25.4865 5.32532 25.0121 5.17584L23.6083 4.75542C22.9016 4.54054 22.3788 4.22289 22.0593 3.80247C21.7398 3.39139 21.5752 2.9336 21.5752 2.44778C21.5752 2.05539 21.6624 1.70971 21.8366 1.41074C22.0109 1.11178 22.2432 0.850183 22.5337 0.644645C22.8241 0.429763 23.1533 0.270938 23.5406 0.158825C23.9278 0.0467134 24.3344 0 24.7604 0C24.9734 0 25.1961 0.00934267 25.4091 0.0373707C25.6317 0.0653987 25.835 0.102769 26.0383 0.14014C26.232 0.186853 26.4159 0.233567 26.5902 0.289623C26.7644 0.345679 26.9 0.401735 26.9968 0.457791C27.1323 0.532532 27.2292 0.607274 27.2872 0.691358C27.3453 0.766099 27.3744 0.868869 27.3744 0.999666V1.43877C27.3744 1.63497 27.2969 1.73774 27.1517 1.73774C27.0743 1.73774 26.9484 1.70037 26.7838 1.62563C26.232 1.38272 25.6124 1.26126 24.925 1.26126C24.3731 1.26126 23.9375 1.34535 23.6374 1.52286C23.3372 1.70037 23.1823 1.9713 23.1823 2.35435C23.1823 2.61595 23.2792 2.84017 23.4728 3.01768C23.6664 3.19519 24.0246 3.37271 24.5377 3.53153L25.9125 3.95195C26.6095 4.16683 27.113 4.4658 27.4131 4.84885C27.7132 5.2319 27.8584 5.671 27.8584 6.15682C27.8584 6.55856 27.7713 6.92292 27.6067 7.24057C27.4325 7.55822 27.2001 7.8385 26.9 8.06273C26.5999 8.29629 26.2417 8.46446 25.8254 8.58592C25.3897 8.71672 24.9347 8.78211 24.4409 8.78211V8.78211Z"
    fill="#F4F4F5"
  />
  <path
    fill-rule="evenodd"
    clip-rule="evenodd"
    d="M26.2185 13.4601C23.0452 15.7727 18.4349 17.0004 14.4707 17.0004C8.91515 17.0004 3.90935 14.9733 0.128474 11.6043C-0.170524 11.3378 0.099539 10.9762 0.456407 11.1856C4.54593 13.5267 9.59031 14.9448 14.8083 14.9448C18.3288 14.9448 22.1965 14.2215 25.7555 12.7368C26.286 12.4989 26.7393 13.0794 26.2185 13.4601V13.4601Z"
    fill="#FF9900"
  />
  <path
    fill-rule="evenodd"
    clip-rule="evenodd"
    d="M27.5395 11.9754C27.1344 11.4615 24.8582 11.728 23.8262 11.8517C23.5175 11.8897 23.4693 11.6233 23.749 11.4234C25.5623 10.1672 28.5426 10.5288 28.8898 10.9476C29.2371 11.3758 28.7934 14.3166 27.0958 15.7251C26.8354 15.9439 26.5847 15.8297 26.7004 15.5442C27.0862 14.6021 27.9446 12.4798 27.5395 11.9754V11.9754Z"
    fill="#FF9900"
  />
</svg>
