<svg width="100" height="100" viewBox="0 0 100 100" fill="none" xmlns="http://www.w3.org/2000/svg">
  <path
    fill-rule="evenodd"
    clip-rule="evenodd"
    d="M32 42.7414C32 40.1228 34.0616 38 36.6047 38H63.3953C65.9384 38 68 40.1228 68 42.7414V58.2586C68 60.8772 65.9384 63 63.3953 63H61.7209C61.0274 63 60.4651 62.4211 60.4651 61.7069C60.4651 60.9927 61.0274 60.4138 61.7209 60.4138H63.3953C64.5513 60.4138 65.4884 59.4489 65.4884 58.2586V42.7414C65.4884 41.5511 64.5513 40.5862 63.3953 40.5862H36.6047C35.4487 40.5862 34.5116 41.5511 34.5116 42.7414V58.2586C34.5116 59.4489 35.4487 60.4138 36.6046 60.4138H56.5521C57.2456 60.4138 57.8079 60.9927 57.8079 61.7069C57.8079 62.4211 57.2456 63 56.5521 63H36.6046C34.0616 63 32 60.8772 32 58.2586V42.7414ZM37.2572 43.7139C37.6603 43.1328 38.4446 42.9982 39.009 43.4133L50 51.4971L60.991 43.4133C61.5554 42.9982 62.3397 43.1328 62.7428 43.7139C63.146 44.2951 63.0152 45.1027 62.4509 45.5178L50.7299 54.1384C50.2933 54.4596 49.7067 54.4596 49.2701 54.1384L37.5491 45.5178C36.9848 45.1027 36.854 44.2951 37.2572 43.7139Z"
    fill="#E8E8E8"
  />
</svg>
