<svg width="150" height="150" viewBox="0 0 150 150" fill="none" xmlns="http://www.w3.org/2000/svg">
<path d="M132 17H17V132H132V17Z" fill="#D86613"/>
<path d="M97.5 89.0667V86C101.195 86 109.767 84.896 109.767 74.6534C109.767 68.52 106.163 64.6714 99.0334 63.2454C98.6996 63.1777 98.3978 63.0008 98.1757 62.7425C97.9536 62.4843 97.8237 62.1595 97.8067 61.8194C97.454 55.8394 93.9734 53.708 91.106 53.708C90.1329 53.7175 89.1751 53.9523 88.3079 54.3939C87.4406 54.8355 86.6875 55.4719 86.1074 56.2534C85.9406 56.4704 85.7187 56.6389 85.4648 56.7413C85.211 56.8436 84.9343 56.8761 84.6636 56.8355C84.3929 56.7948 84.138 56.6824 83.9254 56.5099C83.7128 56.3374 83.5503 56.1112 83.4547 55.8547C82.4635 52.9651 80.8215 50.3421 78.6554 48.188C76.3088 45.7532 73.2939 44.0674 69.9908 43.3433C66.6876 42.6191 63.2441 42.889 60.0941 44.1188C56.944 45.3486 54.2286 47.4834 52.2899 50.2541C50.3512 53.0247 49.2761 56.3073 49.2 59.688C49.2022 60.3747 49.2432 61.0607 49.3227 61.7427C49.3675 62.1135 49.2754 62.488 49.0636 62.7957C48.8519 63.1035 48.5351 63.3233 48.1727 63.414C44.83 64.242 39.218 66.7874 39.218 74.5154C39.218 74.822 39.218 75.098 39.218 75.3587C39.4831 78.338 40.8806 81.1022 43.1227 83.0819C45.3649 85.0616 48.2809 86.106 51.27 86H53.0334V89.0667H51.27C47.5087 89.1621 43.8531 87.8165 41.0512 85.3054C38.2493 82.7942 36.513 79.3073 36.1974 75.558C36.1974 75.236 36.1974 74.8987 36.1974 74.546C36.0643 71.4716 36.973 68.4424 38.7763 65.9489C40.5796 63.4554 43.1719 61.6437 46.1334 60.8074C46.1334 60.4394 46.1334 60.0714 46.1334 59.688C46.2253 55.7126 47.488 51.8525 49.7634 48.5913C52.0387 45.3301 55.2257 42.8127 58.9251 41.3542C62.6245 39.8957 66.6719 39.561 70.5607 40.392C74.4494 41.2231 78.0065 43.1829 80.7867 46.026C82.7005 47.9206 84.2586 50.1434 85.3867 52.5887C86.9996 51.3066 88.9996 50.6093 91.06 50.6107C95.3534 50.6107 99.8767 53.6774 100.72 60.4547C108.509 62.3714 112.787 67.37 112.787 74.6227C112.833 85.264 104.906 89.0667 97.5 89.0667Z" fill="white"/>
<path d="M86.7668 73.4729C84.6979 73.4872 82.7082 74.2699 81.1839 75.6689C79.6597 77.0679 78.7099 78.9835 78.5188 81.0436C78.3277 83.1036 78.909 85.1612 80.1498 86.8168C81.3907 88.4723 83.2025 89.6076 85.2334 90.0022V96.7336H76.0334V70.5596C78.077 70.1774 79.9042 69.0459 81.1569 67.3868C82.4097 65.7277 82.9977 63.6605 82.8058 61.5904C82.6139 59.5203 81.6559 57.5965 80.1195 56.1959C78.5831 54.7954 76.5791 54.019 74.5001 54.019C72.4211 54.019 70.4171 54.7954 68.8807 56.1959C67.3443 57.5965 66.3863 59.5203 66.1944 61.5904C66.0025 63.6605 66.5905 65.7277 67.8433 67.3868C69.0961 69.0459 70.9232 70.1774 72.9668 70.5596V89.0669H63.7668V86.1076C65.8103 85.7254 67.6375 84.5939 68.8903 82.9348C70.143 81.2757 70.7311 79.2085 70.5392 77.1384C70.3473 75.0683 69.3892 73.1445 67.8528 71.7439C66.3164 70.3434 64.3124 69.567 62.2334 69.567C60.1545 69.567 58.1504 70.3434 56.614 71.7439C55.0776 73.1445 54.1196 75.0683 53.9277 77.1384C53.7358 79.2085 54.3239 81.2757 55.5766 82.9348C56.8294 84.5939 58.6566 85.7254 60.7001 86.1076V90.6002C60.7001 91.0069 60.8617 91.3969 61.1492 91.6845C61.4368 91.972 61.8268 92.1336 62.2334 92.1336H72.9668V109H76.0334V99.8002H86.7668C87.1734 99.8002 87.5635 99.6387 87.851 99.3511C88.1386 99.0636 88.3001 98.6736 88.3001 98.2669V90.0022C90.3311 89.6076 92.1429 88.4723 93.3837 86.8168C94.6246 85.1612 95.2059 83.1036 95.0148 81.0436C94.8237 78.9835 93.8738 77.0679 92.3496 75.6689C90.8254 74.2699 88.8357 73.4872 86.7668 73.4729ZM56.9588 77.9349C56.9557 76.891 57.2625 75.8697 57.8403 75.0003C58.418 74.1309 59.2407 73.4524 60.2043 73.0508C61.1678 72.6492 62.2289 72.5426 63.253 72.7444C64.2772 72.9462 65.2185 73.4473 65.9577 74.1844C66.697 74.9214 67.2008 75.8613 67.4056 76.8849C67.6104 77.9085 67.5068 78.9698 67.1081 79.9345C66.7093 80.8992 66.0332 81.7239 65.1655 82.3042C64.2977 82.8845 63.2773 83.1942 62.2334 83.1942C60.8372 83.1942 59.4979 82.6406 58.5091 81.6547C57.5203 80.6689 56.9628 79.3312 56.9588 77.9349ZM69.2254 62.3716C69.2163 61.3264 69.5179 60.3021 70.0919 59.4287C70.666 58.5552 71.4865 57.872 72.4495 57.4657C73.4125 57.0594 74.4745 56.9484 75.5007 57.1467C76.5269 57.345 77.471 57.8437 78.2133 58.5795C78.9556 59.3153 79.4625 60.2551 79.6698 61.2795C79.8771 62.3039 79.7754 63.3668 79.3775 64.3333C78.9797 65.2998 78.3037 66.1263 77.4353 66.708C76.5669 67.2896 75.5453 67.6002 74.5001 67.6002C73.1091 67.6003 71.7744 67.0509 70.7865 66.0716C69.7986 65.0924 69.2376 63.7625 69.2254 62.3716ZM86.7668 87.0889C85.7235 87.0889 84.7037 86.7795 83.8363 86.2C82.9689 85.6204 82.2928 84.7966 81.8936 83.8328C81.4944 82.8689 81.3899 81.8084 81.5935 80.7852C81.797 79.762 82.2994 78.8222 83.037 78.0845C83.7747 77.3468 84.7146 76.8444 85.7377 76.6409C86.7609 76.4374 87.8215 76.5418 88.7853 76.9411C89.7491 77.3403 90.5729 78.0164 91.1525 78.8838C91.7321 79.7512 92.0414 80.771 92.0414 81.8142C92.0414 83.2132 91.4857 84.5548 90.4965 85.544C89.5073 86.5332 88.1657 87.0889 86.7668 87.0889Z" fill="white"/>
</svg>
