<svg width="150" height="150" viewBox="0 0 150 150" fill="none" xmlns="http://www.w3.org/2000/svg">
<path fill-rule="evenodd" clip-rule="evenodd" d="M74.284 16.0473L16.9506 34.0664C15.2838 34.5902 14.1499 36.1352 14.1499 37.8823V112.137C14.1499 113.872 15.2344 115.292 16.6985 115.866C16.9022 116.054 17.1556 116.206 17.4588 116.304L74.3237 134.61C74.7206 134.737 75.1474 134.738 75.5446 134.611L131.864 116.637C132.408 116.463 132.741 116.055 132.859 115.596C134.032 114.912 134.85 113.643 134.85 112.137V37.8823C134.85 36.1352 133.716 34.5902 132.049 34.0664L74.7155 16.0473C74.6426 16.0244 74.5694 16.019 74.4997 16.0282C74.4301 16.019 74.3569 16.0244 74.284 16.0473Z" fill="#B5E9FF"/>
<path d="M73.6318 21.9214L19.3604 38.8541V112.229L73.6318 96.1647V21.9214Z" fill="#68AEC9"/>
<path d="M74.9341 21.9214L129.206 38.8541V112.229L74.9341 96.1647V21.9214Z" fill="#68AEC9"/>
<path d="M74.0659 129.162L21.9653 112.663L74.0659 97.4673L126.166 112.663L74.0659 129.162Z" fill="#4596B4"/>
<path d="M35.8589 79.46L54.9624 85.386V114.028L35.8589 107.608V79.46Z" fill="white"/>
<path d="M74.0659 79.46L54.9624 85.386V114.028L74.0659 107.608V79.46Z" fill="white"/>
<path d="M73.1562 80.8242L55.8721 86.2824V112.663L73.1562 106.75V80.8242Z" fill="#FFD21E"/>
<path d="M36.7681 80.8242L54.0522 86.2824V112.663L36.7681 106.75V80.8242Z" fill="#FA9A33"/>
<path d="M54.4166 85.8275L35.8589 79.4596L55.5082 73.0918L74.066 79.4596L54.4166 85.8275Z" fill="white"/>
<path d="M54.4945 84.9183L38.5879 79.4601L55.4302 74.002L71.3368 79.4601L54.4945 84.9183Z" fill="#FFD21E"/>
<path d="M74.0659 79.46L93.1694 85.386V114.028L74.0659 107.608V79.46Z" fill="white"/>
<path d="M112.273 79.46L93.1694 85.386V114.028L112.273 107.608V79.46Z" fill="white"/>
<path d="M111.363 80.8242L94.0791 86.2824V112.663L111.363 106.75V80.8242Z" fill="#FFD21E"/>
<path d="M74.9751 80.8242L92.2593 86.2824V112.663L74.9751 106.75V80.8242Z" fill="#FA9A33"/>
<path d="M92.6236 85.8275L74.0659 79.4596L93.7153 73.0918L112.273 79.4596L92.6236 85.8275Z" fill="white"/>
<path d="M92.7015 84.9183L76.7949 79.4601L93.6372 74.002L109.544 79.4601L92.7015 84.9183Z" fill="#FFD21E"/>
<path d="M54.9624 45.6558L74.0659 51.5818V80.2241L54.9624 73.8043V45.6558Z" fill="white"/>
<path d="M93.1695 45.6558L74.0659 51.5818V80.2241L93.1695 73.8043V45.6558Z" fill="white"/>
<path d="M92.2597 47.0205L74.9756 52.4787V78.8598L92.2597 72.9467V47.0205Z" fill="#FFD21E"/>
<path d="M55.8716 47.0205L73.1558 52.4787V78.8598L55.8716 72.9467V47.0205Z" fill="#FA9A33"/>
<path d="M73.5201 52.0238L54.9624 45.6559L74.6118 39.2881L93.1695 45.6559L73.5201 52.0238Z" fill="white"/>
<path d="M73.598 51.1141L57.6914 45.6559L74.5337 40.1978L90.4403 45.6559L73.598 51.1141Z" fill="#FFD21E"/>
</svg>
