<svg width="150" height="150" viewBox="0 0 150 150" fill="none" xmlns="http://www.w3.org/2000/svg">
<path d="M126.129 87.5704C126.129 90.0496 126.016 92.4961 125.796 94.9023C125.67 96.2869 125.934 97.6751 126.481 98.9535C128.05 102.626 128.922 106.69 128.922 110.965C128.922 117.658 126.785 123.833 123.179 128.798C122.525 129.699 121.614 130.376 120.584 130.801C107.663 136.129 92.0134 139.248 75.1498 139.248C58.2859 139.248 42.636 136.129 29.7149 130.8C28.6849 130.376 27.7741 129.699 27.1194 128.798C23.5143 123.833 21.3774 117.658 21.3774 110.965C21.3774 107.533 21.9393 104.238 22.9727 101.172C23.3746 99.9801 23.539 98.7157 23.3837 97.4673C22.9823 94.2413 22.7741 90.936 22.7741 87.5704C22.7741 74.616 25.858 62.5571 31.1629 52.4665C31.9152 51.0354 33.1908 49.9545 34.7166 49.42C46.5918 45.26 60.4069 42.8765 75.1498 42.8765C89.1458 42.8765 102.306 45.0246 113.763 48.8014C115.316 49.3131 116.622 50.3867 117.399 51.8252C122.912 62.0445 126.129 74.3404 126.129 87.5704Z" fill="#C1BFC2"/>
<path fill-rule="evenodd" clip-rule="evenodd" d="M26.5251 107.823C29.4664 107.823 32.7473 111.396 33.2325 111.943C33.2732 111.989 33.3291 112.013 33.3903 112.013H75.2891C75.4048 112.013 75.4986 112.107 75.4986 112.222C75.4986 112.107 75.5924 112.013 75.7081 112.013H117.607C117.668 112.013 117.724 111.989 117.765 111.943C118.25 111.396 121.531 107.823 124.472 107.823H136.207C136.323 107.823 136.417 107.917 136.412 108.032C136.305 110.458 134.383 112.843 133.58 113.737C133.454 113.877 133.555 114.108 133.742 114.108H137.8C137.916 114.108 138.01 114.201 137.999 114.316C137.791 116.399 134.629 119.947 133.572 121.081C133.446 121.217 133.544 121.44 133.729 121.44H135.809C135.925 121.44 136.02 121.535 135.997 121.649C135.649 123.383 131.218 126.271 129.513 127.325C129.332 127.437 129.412 127.726 129.625 127.726H131.828C131.943 127.726 132.03 127.822 131.967 127.919C131.503 128.646 128.864 129.967 128.495 130.149C128.466 130.163 128.436 130.17 128.404 130.17H128.453C128.034 130.42 127.582 130.631 127.109 130.801C112.318 136.13 94.4037 139.248 75.0995 139.248C55.7951 139.248 37.8804 136.129 23.0893 130.801C22.6163 130.63 22.1652 130.419 21.7462 130.17H21.8059C21.7665 130.17 21.7297 130.16 21.6965 130.139C21.3584 129.923 19.3791 128.64 19.017 127.924C18.9648 127.821 19.0539 127.726 19.1696 127.726H21.3719C21.5857 127.726 21.6656 127.437 21.4838 127.325C19.7796 126.271 15.3479 123.383 15.0002 121.649C14.9775 121.535 15.0723 121.44 15.188 121.44H17.2679C17.4534 121.44 17.5513 121.217 17.4248 121.081C16.3684 119.947 13.2066 116.399 12.9985 114.316C12.987 114.201 13.0815 114.108 13.1972 114.108H17.255C17.4423 114.108 17.5428 113.877 17.4176 113.737C16.6145 112.843 14.6919 110.458 14.585 108.032C14.5799 107.917 14.6742 107.823 14.7899 107.823H26.5251ZM75.2891 130.17H75.7081C75.5924 130.17 75.4986 130.076 75.4986 129.96C75.4986 130.076 75.4048 130.17 75.2891 130.17Z" fill="#FFF0DD"/>
<path fill-rule="evenodd" clip-rule="evenodd" d="M32.5511 107.823C35.1144 107.823 37.9717 111.351 38.425 111.932C38.4656 111.984 38.5258 112.013 38.5918 112.013H75.2896C75.4053 112.013 75.4991 112.107 75.4991 112.222C75.4991 112.107 75.5929 112.013 75.7086 112.013H112.407C112.472 112.013 112.533 111.984 112.573 111.932C113.027 111.351 115.884 107.823 118.447 107.823H128.713C128.829 107.823 128.923 107.917 128.918 108.032C128.824 110.469 127.123 112.865 126.424 113.75C126.312 113.892 126.415 114.108 126.595 114.108H130.11C130.225 114.108 130.32 114.201 130.31 114.316C130.126 116.405 127.337 119.97 126.419 121.092C126.306 121.23 126.405 121.44 126.584 121.44H128.364C128.479 121.44 128.574 121.535 128.554 121.649C128.248 123.388 124.343 126.286 122.857 127.333C122.687 127.452 122.773 127.726 122.98 127.726H124.872C124.988 127.726 125.076 127.821 125.019 127.922C124.61 128.644 122.335 129.946 121.983 130.144C121.952 130.162 121.919 130.17 121.883 130.17H121.938C121.571 130.42 121.175 130.631 120.76 130.801C107.789 136.13 92.0783 139.248 75.1493 139.248C58.2199 139.248 42.5094 136.129 29.5381 130.801C29.1233 130.63 28.7277 130.419 28.3602 130.17H28.4268C28.3832 130.17 28.3415 130.157 28.3062 130.131C27.9819 129.895 26.2841 128.635 25.9677 127.927C25.9205 127.821 26.0106 127.726 26.1263 127.726H28.0183C28.2256 127.726 28.3109 127.452 28.1415 127.333C26.6555 126.286 22.7502 123.388 22.4442 121.649C22.4241 121.535 22.5189 121.44 22.6346 121.44H24.4138C24.5928 121.44 24.6924 121.23 24.579 121.092C23.6613 119.97 20.8719 116.405 20.6887 114.316C20.6786 114.201 20.7731 114.108 20.8888 114.108H24.4028C24.5836 114.108 24.6859 113.892 24.5739 113.75C23.8756 112.865 22.1742 110.469 22.08 108.032C22.0756 107.917 22.1698 107.823 22.2855 107.823H32.5511ZM75.2896 130.17H75.7086C75.5929 130.17 75.4991 130.076 75.4991 129.96C75.4991 130.076 75.4053 130.17 75.2896 130.17Z" fill="#FFDFB6"/>
<mask id="path-4-inside-1_3297_29845" fill="white">
<path d="M111.668 80.2682C108.448 76.6013 104.083 74.1301 99.2821 73.2554C94.481 72.3807 89.5252 73.1538 85.2187 75.4493L86.7428 78.3088C90.4048 76.3569 94.6188 75.6995 98.7013 76.4432C102.784 77.187 106.495 79.2884 109.233 82.4064L111.668 80.2682Z"/>
<path d="M36.5369 80.2682C39.7571 76.6013 44.1218 74.1301 48.9229 73.2554C53.724 72.3807 58.6798 73.1538 62.9863 75.4493L61.4622 78.3088C57.8002 76.3569 53.5862 75.6995 49.5037 76.4432C45.4212 77.187 41.7098 79.2884 38.9716 82.4064L36.5369 80.2682Z"/>
</mask>
<path d="M111.668 80.2682L114.967 84.0251L118.724 80.7257L115.425 76.9688L111.668 80.2682ZM85.2187 75.4493L82.8667 71.037L78.4544 73.3889L80.8063 77.8013L85.2187 75.4493ZM86.7428 78.3088L82.3305 80.6607L84.6824 85.073L89.0948 82.7211L86.7428 78.3088ZM109.233 82.4064L105.477 85.7057L108.776 89.4626L112.533 86.1633L109.233 82.4064ZM36.5369 80.2682L32.78 76.9688L29.4806 80.7257L33.2375 84.0251L36.5369 80.2682ZM62.9863 75.4493L67.3986 77.8012L69.7506 73.3889L65.3382 71.037L62.9863 75.4493ZM61.4622 78.3088L59.1102 82.7211L63.5226 85.073L65.8745 80.6607L61.4622 78.3088ZM38.9716 82.4064L35.6722 86.1633L39.4291 89.4626L42.7285 85.7057L38.9716 82.4064ZM115.425 76.9688C111.461 72.4551 106.088 69.4131 100.178 68.3364L98.3859 78.1744C102.078 78.8471 105.435 80.7476 107.911 83.5675L115.425 76.9688ZM100.178 68.3364C94.2683 67.2596 88.1679 68.2113 82.8667 71.037L87.5706 79.8617C90.8825 78.0963 94.6937 77.5017 98.3859 78.1744L100.178 68.3364ZM80.8063 77.8013L82.3305 80.6607L91.1552 75.9569L89.631 73.0974L80.8063 77.8013ZM89.0948 82.7211C91.7621 81.2993 94.8315 80.8205 97.8051 81.3623L99.5975 71.5242C94.4061 70.5784 89.0475 71.4144 84.3909 73.8965L89.0948 82.7211ZM97.8051 81.3623C100.779 81.904 103.482 83.4346 105.477 85.7057L112.99 79.107C109.508 75.1421 104.789 72.47 99.5975 71.5242L97.8051 81.3623ZM112.533 86.1633L114.967 84.0251L108.369 76.5113L105.934 78.6495L112.533 86.1633ZM40.2938 83.5675C42.7703 80.7476 46.1269 78.8471 49.8191 78.1744L48.0267 68.3364C42.1168 69.4131 36.744 72.4551 32.78 76.9688L40.2938 83.5675ZM49.8191 78.1744C53.5113 77.5017 57.3225 78.0963 60.6344 79.8617L65.3382 71.037C60.0371 68.2113 53.9367 67.2596 48.0267 68.3364L49.8191 78.1744ZM58.574 73.0974L57.0498 75.9569L65.8745 80.6607L67.3986 77.8012L58.574 73.0974ZM63.8141 73.8965C59.1575 71.4144 53.7989 70.5784 48.6075 71.5242L50.3999 81.3623C53.3735 80.8205 56.4429 81.2993 59.1102 82.7211L63.8141 73.8965ZM48.6075 71.5242C43.4162 72.47 38.6967 75.1421 35.2147 79.107L42.7285 85.7057C44.723 83.4346 47.4263 81.904 50.3999 81.3623L48.6075 71.5242ZM42.2709 78.6495L39.8362 76.5113L33.2375 84.0251L35.6722 86.1633L42.2709 78.6495Z" fill="#A8927B" mask="url(#path-4-inside-1_3297_29845)"/>
<circle cx="95.4018" cy="97.3474" r="21.6486" fill="#FFDFB6"/>
<path d="M90.8627 95.2516C92.9836 95.2516 94.7036 93.532 94.7036 91.4107C94.7036 91.3248 94.7009 91.2399 94.6954 91.1553C95.0377 91.0939 95.391 91.0615 95.7511 91.0615C99.03 91.0615 101.687 93.7192 101.687 96.9974C101.687 100.276 99.03 102.933 95.7511 102.933C92.4722 102.933 89.8152 100.276 89.8152 96.9974C89.8152 96.3618 89.9148 95.7498 90.1003 95.1759C90.3471 95.2257 90.6022 95.2516 90.8627 95.2516Z" fill="#000002"/>
<circle cx="54.1996" cy="97.3474" r="21.6486" fill="#FFDFB6"/>
<path d="M49.6606 95.2516C51.7815 95.2516 53.5014 93.532 53.5014 91.4107C53.5014 91.3248 53.4987 91.2399 53.4933 91.1553C53.8356 91.0939 54.1889 91.0615 54.5489 91.0615C57.8279 91.0615 60.4849 93.7192 60.4849 96.9974C60.4849 100.276 57.8279 102.933 54.5489 102.933C51.27 102.933 48.613 100.276 48.613 96.9974C48.613 96.3618 48.7126 95.7498 48.8981 95.1759C49.145 95.2257 49.4 95.2516 49.6606 95.2516Z" fill="#000002"/>
<path d="M77.1362 120.482C76.043 121.586 74.2586 121.586 73.1654 120.482L65.3456 112.581C63.5998 110.817 64.8493 107.823 67.3309 107.823L82.9706 107.823C85.4523 107.823 86.7017 110.817 84.956 112.581L77.1362 120.482Z" fill="#A68B81"/>
<path d="M77.1087 116.998C76.0303 117.799 74.2701 117.799 73.1917 116.998L65.4776 111.271C63.7555 109.992 64.988 107.822 67.4361 107.822L82.8642 107.822C85.3123 107.822 86.5449 109.992 84.8227 111.271L77.1087 116.998Z" fill="#D9BF9C"/>
<path d="M63.9758 125.979C67.9193 125.979 71.5451 124.9 74.4078 123.096C74.6474 122.945 74.9528 122.945 75.1924 123.096C78.0551 124.9 81.6808 125.979 85.6244 125.979C87.1633 125.979 88.6538 125.815 90.0694 125.507C90.6189 125.388 91.1021 125.905 90.8631 126.414C88.4916 131.461 82.3509 135.057 75.1492 135.057C68.0268 135.057 61.9421 131.54 59.515 126.58C59.2708 126.081 59.7323 125.557 60.2794 125.655C61.4686 125.867 62.7057 125.979 63.9758 125.979Z" fill="#DABFA1"/>
<path d="M82.6433 133.66C80.3887 134.554 77.8436 135.057 75.1498 135.057C72.456 135.057 69.9109 134.554 67.6562 133.66C69.9109 132.767 72.456 132.264 75.1498 132.264C77.8436 132.264 80.3887 132.767 82.6433 133.66Z" fill="#B39B83"/>
<path d="M80.7367 125.406V128.074C80.7367 128.554 80.4953 128.978 80.1257 129.229C79.902 129.381 79.6319 129.47 79.34 129.47H70.9599C70.1879 129.47 69.5632 128.845 69.5632 128.074V125.223C71.3336 124.728 72.9677 124.004 74.408 123.096C74.648 122.945 74.9536 122.945 75.1923 123.096C76.8208 124.122 78.6962 124.914 80.7367 125.406Z" fill="#FCFFFF"/>
<path d="M19.2832 56.8427C19.2832 41.2671 29.4965 27.5816 44.9064 19.7634C45.7998 20.2514 46.8254 20.5289 47.9152 20.5289C50.755 20.5289 53.1555 18.646 53.9344 16.0606C60.3763 13.9885 67.4211 12.8472 74.8014 12.8472C82.4818 12.8472 89.7994 14.0829 96.4514 16.3177C97.308 18.7698 99.6417 20.5289 102.386 20.5289C103.338 20.5289 104.242 20.3168 105.051 19.9377C120.263 27.7848 130.32 41.3865 130.32 56.8427C130.32 60.6857 129.698 64.4133 128.53 67.9664C119.783 64.5126 103.994 62.4295 75.4998 62.4295C45.6224 62.4295 29.7161 64.7195 21.2459 68.4786C19.9665 64.7724 19.2832 60.8708 19.2832 56.8427Z" fill="#FAA500"/>
<path d="M107.973 53.0019C107.973 56.6699 107.669 60.239 107.095 63.6618C98.8481 62.8629 88.4957 62.4295 75.5 62.4295C61.7732 62.4295 50.9953 62.913 42.5319 63.8003C41.9427 60.3351 41.6304 56.7193 41.6304 53.0019C41.6304 37.7345 46.8925 24.1877 55.0162 15.7231C61.1621 13.865 67.8318 12.8472 74.8016 12.8472C81.7714 12.8472 88.4398 13.8647 94.5857 15.7227C102.709 24.1874 107.973 37.7341 107.973 53.0019Z" fill="#FFB701"/>
<path d="M93.7853 26.6248C93.0689 27.3753 93.447 28.6016 94.4419 28.8962C105.456 32.1576 114.536 38.0794 120.111 45.5395C121.044 46.7881 123.306 46.0804 122.956 44.5616C120.539 34.0844 114.202 24.9441 105.427 18.5078C104.983 18.1818 104.386 18.1585 103.917 18.4482C100.148 20.7765 96.7414 23.5282 93.7853 26.6248Z" fill="#C1BFC2"/>
<path d="M55.2769 26.7915C55.9842 27.5396 55.6125 28.7546 54.6279 29.0555C43.8518 32.3488 34.9733 38.2006 29.4889 45.5416C28.556 46.7904 26.2937 46.0831 26.6439 44.5642C29.0297 34.2166 35.2398 25.1728 43.8455 18.7498C44.2937 18.4152 44.9012 18.3916 45.3745 18.6896C49.0564 21.0082 52.3855 23.7337 55.2769 26.7915Z" fill="#C1BFC2"/>
<path d="M48.876 31.2379C49.0864 31.149 49.1582 30.8858 49.0189 30.7048C47.917 29.2738 46.7314 27.9098 45.4691 26.62C45.342 26.4901 45.1363 26.4809 44.998 26.5988C40.9885 30.0198 37.5831 34.1187 34.9623 38.7163C34.772 39.0501 35.1889 39.3894 35.4887 39.1492C39.4118 36.0066 43.9217 33.3316 48.876 31.2379Z" fill="#FFE1B0"/>
<path d="M100.585 30.705C100.445 30.886 100.517 31.1492 100.728 31.2381C105.682 33.3319 110.192 36.007 114.115 39.1497C114.415 39.3899 114.832 39.0506 114.641 38.7169C112.021 34.1191 108.615 30.02 104.605 26.5988C104.467 26.4809 104.261 26.4901 104.134 26.62C102.872 27.9099 101.687 29.274 100.585 30.705Z" fill="#FFE1B0"/>
<path d="M36.6781 47.1742C37.0357 46.6587 37.6244 46.3672 38.2519 46.3672H46.9153C47.4676 46.3672 47.9153 46.8149 47.9153 47.3672V59.6223C47.9153 60.0286 47.6797 60.3901 47.3007 60.5366C44.1034 61.7722 29.5549 67.0755 30.5009 60.8745C31.3552 55.2747 35.2035 49.2998 36.6781 47.1742Z" fill="#FFC604"/>
<path d="M113.623 47.1742C113.265 46.6587 112.676 46.3672 112.049 46.3672H103.385C102.833 46.3672 102.385 46.8149 102.385 47.3672V59.6223C102.385 60.0286 102.621 60.3901 103 60.5366C106.197 61.7722 120.746 67.0755 119.8 60.8745C118.946 55.2747 115.097 49.2998 113.623 47.1742Z" fill="#FFC604"/>
<path d="M61.8813 14.2437C61.8813 12.3154 63.4444 10.752 65.373 10.752H84.2283C86.1569 10.752 87.72 12.3154 87.72 14.2437V33.0638C90.7493 36.2565 92.6084 40.571 92.6084 45.3199C92.6084 53.4651 87.1403 60.3329 79.674 62.4525C78.321 62.4371 76.9298 62.4293 75.499 62.4293C73.5936 62.4293 71.7577 62.4433 69.99 62.4706C62.491 60.3721 56.9929 53.4883 56.9929 45.3199C56.9929 40.571 58.852 36.2565 61.8813 33.0638V14.2437Z" fill="#FFC801"/>
<path d="M126.673 67.2889C117.607 64.2413 102.083 62.4285 75.5001 62.4285C48.917 62.4285 33.393 64.2413 24.3274 67.2889C26.8334 59.0901 36.6948 53.35 75.5001 53.3501C114.305 53.3501 124.167 59.0902 126.673 67.2889Z" fill="#FE8D01"/>
<path d="M74.4524 44.9708L72.7066 41.1299L67.469 51.2558H71.3099L74.4524 44.9708Z" fill="#0C0300"/>
<path d="M75.8497 34.4951H70.2629V38.6852H73.7547L79.3414 51.2553H83.5314V47.4145H81.7856L75.8497 34.4951Z" fill="#0C0300"/>
</svg>
