<svg width="150" height="150" viewBox="0 0 150 150" fill="none" xmlns="http://www.w3.org/2000/svg">
<circle cx="90.4468" cy="48.7398" r="22.378" stroke="#65BFAD" stroke-width="5"/>
<path d="M94.5944 84.6748H76.6269C69.2557 84.6748 54.5132 89.0976 54.5132 106.789C54.5132 124.48 54.5132 126.138 54.5132 126.138H94.5944" stroke="#65BFAD" stroke-width="5" stroke-linecap="round" stroke-linejoin="round"/>
<path d="M94.5936 84.6748H102.886C110.257 84.6748 125 89.0976 125 106.789C125 124.48 125 126.138 125 126.138H104.959" stroke="#65BFAD" stroke-width="5" stroke-linecap="round" stroke-linejoin="round"/>
<path d="M21.9321 67.4798C21.9321 66.0991 23.0514 64.9798 24.4321 64.9798C25.8128 64.9798 26.9321 66.0991 26.9321 67.4798L21.9321 67.4798ZM26.9321 59.9595C26.9321 61.3403 25.8128 62.4595 24.4321 62.4595C23.0514 62.4595 21.9321 61.3403 21.9321 59.9595L26.9321 59.9595ZM56.59 66.6086L57.2868 69.0096L56.59 66.6086ZM55.7576 66.8502L56.4543 69.2512L55.7576 66.8502ZM55.7576 60.5892L56.4543 58.1882L55.7576 60.5892ZM27.4402 72.5001L50.5796 72.5001L50.5796 77.5001L27.4402 77.5001L27.4402 72.5001ZM50.5796 47.4189L27.4403 47.4189L27.4403 42.4189L50.5796 42.4189L50.5796 47.4189ZM51.0878 57.7002L51.0878 47.9271L56.0878 47.9271L56.0878 57.7002L51.0878 57.7002ZM51.0878 71.992L51.0878 69.7392L56.0878 69.7392L56.0878 71.992L51.0878 71.992ZM55.0609 64.4493L55.8933 64.2077L57.2868 69.0096L56.4543 69.2512L55.0609 64.4493ZM55.8933 63.2317L55.0609 62.9901L56.4543 58.1882L57.2868 58.4298L55.8933 63.2317ZM26.9321 67.4798L26.9321 71.992L21.9321 71.992L21.9321 67.4798L26.9321 67.4798ZM26.9321 47.9271L26.9321 59.9595L21.9321 59.9595L21.9321 47.9271L26.9321 47.9271ZM55.8933 64.2077C56.0688 64.1568 56.1355 64.0843 56.1709 64.0339C56.2188 63.9655 56.2599 63.8564 56.2599 63.7197C56.2599 63.5829 56.2188 63.4738 56.1709 63.4055C56.1355 63.3551 56.0688 63.2826 55.8933 63.2317L57.2868 58.4298C62.5842 59.967 62.5842 67.4724 57.2868 69.0096L55.8933 64.2077ZM51.0878 69.7392C51.0878 67.2883 52.7071 65.1323 55.0609 64.4493L56.4543 69.2512C56.2371 69.3142 56.0878 69.5131 56.0878 69.7392L51.0878 69.7392ZM56.0878 57.7002C56.0878 57.9263 56.2371 58.1252 56.4543 58.1882L55.0609 62.9901C52.7071 62.3071 51.0878 60.1511 51.0878 57.7002L56.0878 57.7002ZM50.5796 42.4189C53.6217 42.4189 56.0878 44.885 56.0878 47.9271L51.0878 47.9271C51.0878 47.6464 50.8603 47.4189 50.5796 47.4189L50.5796 42.4189ZM50.5796 72.5001C50.8603 72.5001 51.0878 72.2727 51.0878 71.992L56.0878 71.992C56.0878 75.0341 53.6217 77.5001 50.5796 77.5001L50.5796 72.5001ZM27.4402 77.5001C24.3982 77.5001 21.9321 75.0341 21.9321 71.992L26.9321 71.992C26.9321 72.2727 27.1596 72.5001 27.4402 72.5001L27.4402 77.5001ZM27.4403 47.4189C27.1596 47.4189 26.9321 47.6464 26.9321 47.9271L21.9321 47.9271C21.9321 44.885 24.3982 42.4189 27.4403 42.4189L27.4403 47.4189Z" fill="#65BFAD"/>
</svg>
