<svg width="150" height="150" viewBox="0 0 150 150" fill="none" xmlns="http://www.w3.org/2000/svg">
<path d="M88.5016 58.4876L76.6031 69.5662L65.5583 47.2789L71.264 34.464C72.7061 31.9078 75.0646 31.874 76.5067 34.464L88.5016 58.4876Z" fill="#FFA000"/>
<path d="M76.6086 69.5608L32.1016 110.957L65.5639 47.2783L76.6086 69.5608Z" fill="#F57F17"/>
<path d="M101.549 41.5428C103.68 39.5123 105.875 40.1972 106.43 43.0813L118 110.397L79.6231 133.436C78.2774 134.189 74.7084 134.483 74.7084 134.483C74.7084 134.483 71.4625 134.087 70.2181 133.403L32.1016 110.956L101.549 41.5428Z" fill="#FFCA28"/>
<path d="M65.5639 47.2783L32.1016 110.957L47.0144 17.8818C47.5739 14.9976 49.2089 14.7034 50.6848 17.2596L65.5639 47.2783Z" fill="#FFA000"/>
</svg>
