<svg width="150" height="150" viewBox="0 0 150 150" fill="none" xmlns="http://www.w3.org/2000/svg">
<path d="M51.5056 136.96C48.4795 136.96 45.6218 135.601 43.6883 133.136L14.2689 96.1635C12.3355 93.6986 11.5792 90.5543 12.3355 87.4939L22.8426 41.3429C23.5149 38.283 25.5323 35.818 28.3066 34.4584L70.8393 13.8896C72.1844 13.2103 73.6975 12.8701 75.2106 12.8701C76.7237 12.8701 78.2363 13.2098 79.5814 13.8901L122.115 34.3735C124.888 35.7331 126.906 38.1981 127.578 41.2579L138.085 87.409C138.758 90.4689 138.085 93.6136 136.152 96.0786L106.732 133.051C104.798 135.43 101.941 136.875 98.9146 136.875L51.5067 136.96H51.5056Z" fill="#326DE6"/>
<path d="M75.1258 14.9949C76.303 14.9949 77.4797 15.2496 78.5724 15.7596L121.106 36.2431C123.291 37.3479 124.972 39.3878 125.476 41.7679L135.984 87.919C136.572 90.384 135.984 92.9338 134.386 94.8883L104.967 131.861C103.454 133.815 101.1 134.92 98.6624 134.92H51.5059C49.068 134.92 46.7147 133.815 45.2016 131.861L15.7818 94.8883C14.2687 92.9338 13.6798 90.384 14.1847 87.919L24.6918 41.7679C25.2801 39.3029 26.8772 37.263 29.0626 36.2431L71.5963 15.6752C72.689 15.2501 73.9497 14.9954 75.1264 14.9954L75.1258 14.9949ZM75.1258 11C73.3608 11 71.5958 11.4251 69.9143 12.1898L27.3815 32.7587C24.019 34.3735 21.6656 37.3479 20.8249 41.0027L10.3178 87.1543C9.47749 90.809 10.3178 94.5487 12.6716 97.5236L42.0915 134.496C44.3614 137.385 47.8074 139 51.4219 139H98.5779C102.192 139 105.639 137.385 107.908 134.496L137.329 97.5231C139.682 94.6336 140.523 90.809 139.682 87.1538L129.175 41.0027C128.335 37.3479 125.981 34.3735 122.619 32.7587L80.2534 12.1893C78.6564 11.4251 76.8914 11 75.1258 11V11Z" fill="white"/>
<path d="M117.743 84.2642C117.659 84.2642 117.659 84.2642 117.743 84.2642H117.659C117.575 84.2642 117.491 84.2642 117.491 84.1793C117.323 84.1793 117.155 84.0944 116.987 84.0944C116.398 84.0094 115.894 83.9245 115.39 83.9245C115.137 83.9245 114.885 83.9245 114.549 83.8391H114.465C112.7 83.6693 111.271 83.4995 109.926 83.0744C109.337 82.8192 109.169 82.4795 109.001 82.1394C109.001 82.0545 108.917 82.0545 108.917 81.9695L107.824 81.6299C108.34 77.6316 108.141 73.5721 107.236 69.6452C106.318 65.6856 104.725 61.918 102.529 58.5111L103.369 57.7464V57.5766C103.369 57.1515 103.453 56.7265 103.789 56.3014C104.798 55.3664 106.059 54.6017 107.572 53.6666C107.824 53.4968 108.076 53.4119 108.329 53.2415C108.833 52.9868 109.253 52.7321 109.758 52.3919C109.842 52.307 110.01 52.2221 110.178 52.0523C110.262 51.9669 110.346 51.9669 110.346 51.882C111.523 50.862 111.775 49.1623 110.934 48.0569C110.514 47.462 109.758 47.1223 109.001 47.1223C108.329 47.1223 107.74 47.3771 107.152 47.8021L106.984 47.972C106.816 48.0569 106.731 48.2272 106.564 48.3121C106.143 48.7372 105.807 49.0768 105.471 49.5019C105.303 49.6717 105.135 49.927 104.883 50.0968C103.705 51.372 102.613 52.3919 101.52 53.1566C101.268 53.3265 101.016 53.4119 100.764 53.4119C100.596 53.4119 100.427 53.4119 100.259 53.3265H100.091L99.0821 54.0068C97.9894 52.817 96.8127 51.797 95.6361 50.7771C90.5692 46.7725 84.4714 44.3238 78.0679 43.7223L77.9839 42.6175L77.816 42.4476C77.5636 42.1924 77.2277 41.9377 77.1432 41.3428C77.0592 39.9827 77.2277 38.4527 77.3956 36.753V36.6681C77.3956 36.4128 77.4796 36.0732 77.5636 35.8179C77.6475 35.3085 77.7315 34.798 77.816 34.2031V33.4384C77.816 31.9085 76.6388 30.6338 75.2102 30.6338C74.5374 30.6338 73.8651 30.9734 73.3607 31.4834C72.8569 31.9934 72.6044 32.6732 72.6044 33.4384V34.1182C72.6044 34.7131 72.6884 35.2231 72.8564 35.733C72.9403 35.9883 72.9403 36.243 73.0243 36.5832V36.6681C73.1923 38.3678 73.4447 39.8978 73.2767 41.2579C73.1928 41.8528 72.8564 42.1075 72.6044 42.3627L72.4365 42.5326L72.352 43.6374C70.8389 43.8072 69.3258 43.9771 67.8127 44.3172C61.3405 45.7622 55.6246 49.0773 51.1699 53.8364L50.3291 53.2415H50.1611C49.9932 53.2415 49.8247 53.3265 49.6568 53.3265C49.4043 53.3265 49.1524 53.2415 48.9 53.0717C47.8073 52.307 46.7146 51.2016 45.5379 49.927C45.37 49.7571 45.202 49.5019 44.9496 49.3321C44.6132 48.907 44.2768 48.5669 43.8564 48.1423C43.7724 48.0569 43.6044 47.9725 43.4365 47.8021C43.3525 47.7172 43.2685 47.7172 43.2685 47.6323C42.7477 47.1973 42.0946 46.957 41.419 46.952C40.6623 46.952 39.906 47.2922 39.4856 47.8871C38.6448 48.9919 38.8972 50.6917 40.0739 51.7116C40.1579 51.7116 40.1579 51.797 40.2419 51.797C40.4098 51.882 40.4943 52.0518 40.6623 52.1367C41.1666 52.4763 41.587 52.7316 42.0914 52.9868C42.3438 53.0717 42.5957 53.2415 42.8482 53.4119C44.3607 54.3464 45.6219 55.1116 46.6306 56.0467C47.051 56.4712 47.051 56.8963 47.051 57.3214V57.4912L47.8913 58.2564C47.7233 58.5111 47.5554 58.6815 47.4709 58.9362C43.268 65.6508 41.671 73.5552 42.7637 81.3747L41.671 81.7143C41.671 81.7997 41.587 81.7997 41.587 81.8841C41.419 82.2243 41.1666 82.5644 40.6623 82.8192C39.4016 83.2442 37.8885 83.4146 36.1235 83.5844H36.039C35.7871 83.5844 35.4507 83.5844 35.1988 83.6693C34.6944 83.6693 34.19 83.7542 33.6017 83.8391C33.4338 83.8391 33.2658 83.9245 33.0973 83.9245C33.0134 83.9245 32.9294 83.9245 32.8449 84.0094C31.3318 84.3491 30.4071 85.7941 30.6595 87.1537C30.912 88.344 32.0047 89.1092 33.3493 89.1092C33.6017 89.1092 33.7697 89.1092 34.0221 89.0238C34.1061 89.0238 34.19 89.0238 34.19 88.9389C34.358 88.9389 34.5259 88.854 34.6939 88.854C35.2827 88.6841 35.7031 88.5143 36.2075 88.2591C36.4594 88.1742 36.7113 88.0038 36.9638 87.9194H37.0478C38.6448 87.324 40.0739 86.8141 41.419 86.6442H41.587C42.0914 86.6442 42.4278 86.899 42.6797 87.0693C42.7637 87.0693 42.7637 87.1542 42.8476 87.1542L44.0248 86.9844C46.0423 93.2734 49.9087 98.8832 55.0363 102.963C56.213 103.898 57.3896 104.663 58.6508 105.428L58.1464 106.532C58.1464 106.618 58.2304 106.618 58.2304 106.702C58.3983 107.042 58.5663 107.467 58.3983 108.062C57.8945 109.337 57.1377 110.612 56.213 112.057V112.142C56.045 112.397 55.8771 112.567 55.7091 112.822C55.3727 113.247 55.1203 113.672 54.7838 114.182C54.6999 114.267 54.6159 114.437 54.5319 114.607C54.5319 114.692 54.4479 114.777 54.4479 114.777C53.7756 116.222 54.28 117.837 55.5406 118.432C55.8765 118.601 56.213 118.687 56.5494 118.687C57.5581 118.687 58.5668 118.007 59.0712 117.071C59.0712 116.987 59.1551 116.902 59.1551 116.902C59.2391 116.732 59.3231 116.562 59.4071 116.477C59.6595 115.882 59.7435 115.457 59.9114 114.947L60.1639 114.182C60.7522 112.482 61.1726 111.122 61.9289 109.932C62.2648 109.422 62.6857 109.337 63.0216 109.167C63.1055 109.167 63.1055 109.167 63.1895 109.082L63.7784 107.977C67.4768 109.422 71.5117 110.187 75.5461 110.187C77.9839 110.187 80.5057 109.932 82.8596 109.337C84.3408 109.003 85.8004 108.577 87.2304 108.062L87.7342 108.997C87.8187 108.997 87.8187 108.997 87.9027 109.082C88.3231 109.167 88.659 109.337 88.9954 109.847C89.6677 111.037 90.1721 112.482 90.7604 114.097V114.182L91.0128 114.947C91.1808 115.457 91.2648 115.967 91.5167 116.477C91.6012 116.646 91.6852 116.732 91.7691 116.902C91.7691 116.987 91.8536 117.071 91.8536 117.071C92.3575 118.091 93.3662 118.687 94.3749 118.687C94.7113 118.687 95.0477 118.601 95.3836 118.432C95.972 118.092 96.4763 117.581 96.6448 116.902C96.8127 116.222 96.8127 115.457 96.4768 114.777C96.4768 114.692 96.3923 114.692 96.3923 114.607C96.3084 114.437 96.2244 114.267 96.1404 114.182C95.888 113.672 95.5521 113.247 95.2157 112.822C95.0477 112.567 94.8798 112.397 94.7118 112.143V112.057C93.7866 110.612 92.9458 109.337 92.5259 108.062C92.358 107.467 92.5259 107.128 92.6099 106.703C92.6099 106.618 92.6939 106.618 92.6939 106.533L92.2735 105.513C96.7288 102.878 100.511 99.1379 103.369 94.5486C104.883 92.1686 106.059 89.5338 106.899 86.899L107.908 87.0688C107.993 87.0688 107.993 86.9839 108.076 86.9839C108.413 86.8141 108.665 86.5593 109.169 86.5593H109.337C110.682 86.7292 112.111 87.2386 113.709 87.834H113.793C114.044 87.9189 114.296 88.0887 114.549 88.1737C115.053 88.4289 115.474 88.5987 116.062 88.7691C116.23 88.7691 116.398 88.854 116.566 88.854C116.65 88.854 116.734 88.854 116.818 88.9389C117.071 89.0238 117.239 89.0238 117.491 89.0238C118.752 89.0238 119.844 88.1742 120.181 87.0693C120.181 86.0494 119.256 84.6892 117.743 84.2647V84.2642ZM78.8242 80.0995L75.1257 81.8846L71.4272 80.0995L70.503 76.1051L73.0243 72.8754H77.1432L79.665 76.1051L78.8247 80.0995H78.8242ZM100.764 71.2605C101.416 74.0711 101.614 76.9696 101.352 79.8442L88.491 76.1051C87.3144 75.7654 86.642 74.5751 86.894 73.3854C86.978 73.0452 87.1464 72.7051 87.3983 72.4503L97.5695 63.1858C98.9981 65.5659 100.091 68.2856 100.764 71.26V71.2605ZM93.5346 58.0866L82.5232 65.991C81.5984 66.5858 80.3373 66.4155 79.581 65.481C79.3291 65.2257 79.2451 64.8856 79.1606 64.5459L78.4043 50.6917C84.129 51.3582 89.4618 53.9646 93.5346 58.0866V58.0866ZM69.1579 51.1162C70.0826 50.9464 70.9229 50.7766 71.8476 50.6068L71.0913 64.2053C71.0074 65.395 70.0826 66.415 68.8215 66.415C68.4856 66.415 68.0652 66.3301 67.8127 66.1603L56.6333 58.0866C60.0799 54.6017 64.3667 52.2216 69.1579 51.1167V51.1162ZM52.5985 63.1853L62.6012 72.1946C63.5259 72.9598 63.6099 74.4043 62.8536 75.3393C62.6012 75.679 62.2653 75.9342 61.8449 76.0196L48.816 79.8442C48.3116 74.0647 49.5723 68.2002 52.5985 63.1853V63.1853ZM50.3286 86.2187L63.6944 83.9235C64.7871 83.8386 65.7958 84.6038 66.0477 85.7087C66.1317 86.2181 66.1317 86.6437 65.9638 87.0688L60.8362 99.5624C56.129 96.5026 52.3465 91.8279 50.3291 86.2187H50.3286ZM81.0101 103.132C79.0766 103.557 77.1432 103.812 75.1257 103.812C72.184 103.812 69.3258 103.303 66.6366 102.452L73.2767 90.2985C73.9491 89.5332 75.0418 89.1936 75.9665 89.7036C76.359 89.9467 76.7015 90.264 76.9752 90.6381L83.4474 102.452C82.6911 102.707 81.8504 102.878 81.0096 103.132H81.0101ZM97.4011 91.3184C95.2996 94.7179 92.5254 97.4376 89.3318 99.5624L84.0363 86.7281C83.7838 85.7087 84.2042 84.6038 85.2129 84.0933C85.5488 83.9235 85.9692 83.8386 86.3896 83.8386L99.8389 86.1338C99.3345 88.0033 98.4938 89.7036 97.4011 91.3184V91.3184Z" fill="white"/>
</svg>
