<svg width="150" height="150" viewBox="0 0 150 150" fill="none" xmlns="http://www.w3.org/2000/svg">
<path fill-rule="evenodd" clip-rule="evenodd" d="M42.0724 80.8699C45.9836 78.6117 45.9901 71.3007 42.0869 64.5404C38.1837 57.78 31.8489 54.1303 27.9377 56.3886C24.0265 58.6468 24.02 65.9577 27.9231 72.7181C31.8263 79.4784 38.1612 83.1281 42.0724 80.8699ZM42.0958 95.3455C45.999 102.106 45.9925 109.417 42.0813 111.675C38.17 113.933 31.8352 110.284 27.932 103.523C24.0288 96.7628 24.0353 89.4518 27.9465 87.1936C31.8578 84.9354 38.1926 88.5851 42.0958 95.3455ZM68.7495 110.755C72.6527 117.516 72.6462 124.826 68.735 127.085C64.8238 129.343 58.4889 125.693 54.5857 118.933C50.6826 112.173 50.6891 104.862 54.6003 102.603C58.5115 100.345 64.8463 103.995 68.7495 110.755ZM68.7408 79.9505C72.644 86.7108 72.6375 94.0218 68.7263 96.28C64.8151 98.5382 58.4803 94.8885 54.5771 88.1282C50.6739 81.3679 50.6804 74.0569 54.5916 71.7987C58.5028 69.5405 64.8377 73.1902 68.7408 79.9505Z" fill="#F26E7E"/>
<path fill-rule="evenodd" clip-rule="evenodd" d="M122.061 72.7347C125.964 65.9744 125.958 58.6634 122.047 56.4052C118.136 54.147 111.801 57.7967 107.898 64.557C103.994 71.3174 104.001 78.6283 107.912 80.8865C111.823 83.1447 118.158 79.4951 122.061 72.7347ZM122.062 87.203C125.973 89.4612 125.98 96.7721 122.077 103.532C118.173 110.293 111.839 113.942 107.927 111.684C104.016 109.426 104.01 102.115 107.913 95.3548C111.816 88.5944 118.151 84.9447 122.062 87.203ZM95.4136 102.587C99.3249 104.846 99.3314 112.157 95.4282 118.917C91.525 125.677 85.1901 129.327 81.2789 127.069C77.3677 124.811 77.3612 117.5 81.2644 110.739C85.1676 103.979 91.5024 100.329 95.4136 102.587ZM95.3986 71.7895C99.3098 74.0477 99.3163 81.3587 95.4131 88.119C91.5099 94.8794 85.1751 98.529 81.2638 96.2708C77.3526 94.0126 77.3461 86.7017 81.2493 79.9413C85.1525 73.181 91.4873 69.5313 95.3986 71.7895Z" fill="#8A3391"/>
<path fill-rule="evenodd" clip-rule="evenodd" d="M89.1222 30.1777C89.1222 34.6941 82.7939 38.3554 74.9875 38.3554C67.1811 38.3554 60.8528 34.6941 60.8528 30.1777C60.8528 25.6613 67.1811 22 74.9875 22C82.7939 22 89.1222 25.6613 89.1222 30.1777ZM62.474 45.5464C62.474 50.0628 56.1457 53.7241 48.3393 53.7241C40.5329 53.7241 34.2046 50.0628 34.2046 45.5464C34.2046 41.03 40.5329 37.3687 48.3393 37.3687C56.1457 37.3687 62.474 41.03 62.474 45.5464ZM101.671 53.7241C109.477 53.7241 115.805 50.0628 115.805 45.5464C115.805 41.03 109.477 37.3687 101.671 37.3687C93.8641 37.3687 87.5358 41.03 87.5358 45.5464C87.5358 50.0628 93.8641 53.7241 101.671 53.7241ZM89.1222 60.9496C89.1222 65.466 82.7939 69.1272 74.9875 69.1272C67.1811 69.1272 60.8528 65.466 60.8528 60.9496C60.8528 56.4332 67.1811 52.7719 74.9875 52.7719C82.7939 52.7719 89.1222 56.4332 89.1222 60.9496Z" fill="#F7BF2A"/>
</svg>
